<svg width="17" height="15" viewBox="0 0 17 15" fill="none" xmlns="http://www.w3.org/2000/svg">
<g filter="url(#filter0_d_320_4210)">
<path d="M15.2811 0.220221C15.1788 0.117996 15.0492 0.0475052 14.9078 0.0172335C14.7665 -0.0130382 14.6193 -0.00179981 14.4842 0.0495956L1.98327 4.78116H1.98077C1.83663 4.8366 1.71312 4.93518 1.6271 5.06343C1.54109 5.19169 1.49677 5.34338 1.50018 5.49777C1.5036 5.65216 1.5546 5.80174 1.64621 5.92606C1.73781 6.05039 1.86557 6.14341 2.01202 6.19241L2.02483 6.19647L6.31545 8.02866C6.39914 8.05406 6.48803 8.05707 6.57324 8.03739C6.65846 8.0177 6.73701 7.97601 6.80108 7.91647L13.6873 1.49991C13.7078 1.47939 13.7322 1.46311 13.759 1.45201C13.7858 1.4409 13.8146 1.43519 13.8436 1.43519C13.8726 1.43519 13.9013 1.4409 13.9281 1.45201C13.955 1.46311 13.9793 1.47939 13.9998 1.49991C14.0203 1.52043 14.0366 1.54479 14.0477 1.5716C14.0588 1.59841 14.0645 1.62714 14.0645 1.65616C14.0645 1.68518 14.0588 1.71391 14.0477 1.74072C14.0366 1.76753 14.0203 1.79189 13.9998 1.81241L7.58295 8.69553C7.52342 8.7596 7.48172 8.83816 7.46204 8.92337C7.44235 9.00858 7.44536 9.09747 7.47077 9.18116L9.30358 13.4743C9.30545 13.4805 9.30733 13.4862 9.30952 13.4921C9.40952 13.7818 9.66264 13.9862 9.96858 13.9999H9.99983C10.1543 14.0008 10.3054 13.9552 10.4336 13.869C10.5618 13.7829 10.6611 13.6601 10.7186 13.5168L15.4495 1.01928C15.5016 0.884058 15.5135 0.736626 15.4836 0.594817C15.4537 0.453009 15.3834 0.322898 15.2811 0.220221V0.220221Z" fill="black"/>
<path d="M14.4925 0.0715023L14.4925 0.0715156L1.99156 4.80308L1.98327 4.80622V4.80534C1.84617 4.85945 1.72872 4.954 1.64657 5.07649C1.56324 5.20074 1.5203 5.34768 1.52362 5.49725C1.52693 5.64682 1.57633 5.79172 1.66507 5.91216C1.75378 6.03255 1.87747 6.12263 2.01927 6.17012C2.01933 6.17014 2.01939 6.17016 2.01945 6.17018L2.03191 6.17413L2.03408 6.17481L2.03403 6.17492L6.32347 8.0066C6.40288 8.03048 6.48716 8.03322 6.56797 8.01455C6.64919 7.99579 6.72406 7.95605 6.78512 7.8993L13.6708 1.48334C13.6709 1.48324 13.671 1.48314 13.6711 1.48304C13.6937 1.46048 13.7205 1.44258 13.75 1.43035C13.7797 1.41807 13.8115 1.41175 13.8436 1.41175C13.8757 1.41175 13.9075 1.41807 13.9371 1.43035C13.9668 1.44264 13.9937 1.46064 14.0164 1.48334C14.0391 1.50603 14.0571 1.53297 14.0694 1.56263C14.0817 1.59228 14.088 1.62406 14.088 1.65616C14.088 1.68825 14.0817 1.72004 14.0694 1.74969C14.0572 1.77921 14.0393 1.80605 14.0167 1.82869C14.0166 1.82878 14.0165 1.82888 14.0164 1.82898L7.60012 8.71149L14.4925 0.0715023ZM14.4925 0.0715023C14.6235 0.021713 14.766 0.0108259 14.9029 0.0401515C15.0399 0.0694738 15.1654 0.13775 15.2645 0.236761M14.4925 0.0715023L15.2645 0.236761M15.2645 0.236761C15.3636 0.33623 15.4317 0.462275 15.4607 0.599652C15.4896 0.737029 15.4781 0.879854 15.4276 1.01085L15.4276 1.01099L10.6968 13.5081L15.2645 0.236761ZM9.96858 13.9999H9.99983C10.1543 14.0008 10.3054 13.9552 10.4336 13.869C10.5618 13.7829 10.6611 13.6601 10.7186 13.5168L10.6967 13.5085L10.6967 13.5083C10.641 13.6472 10.5447 13.7661 10.4205 13.8496C10.2962 13.9331 10.1497 13.9773 9.99996 13.9765H9.99983H9.9691M9.96858 13.9999L9.96963 13.9765C9.96945 13.9765 9.96928 13.9765 9.9691 13.9765M9.96858 13.9999V13.9765H9.9691M9.96858 13.9999C9.66264 13.9862 9.40952 13.7818 9.30952 13.4921C9.30733 13.4862 9.30545 13.4805 9.30358 13.4743L7.47077 9.18116M9.9691 13.9765C9.67379 13.963 9.42874 13.7657 9.33168 13.4844L9.33151 13.484C9.32949 13.4785 9.32777 13.4734 9.32603 13.4675L9.32617 13.4675L9.32513 13.4651L7.49283 9.17315M7.49283 9.17315C7.49295 9.17355 7.49307 9.17395 7.49319 9.17435L7.47077 9.18116M7.49283 9.17315C7.46895 9.09373 7.4662 9.00946 7.48487 8.92865C7.50363 8.84744 7.54336 8.77257 7.6001 8.71152L7.46204 8.92337C7.44235 9.00858 7.44536 9.09747 7.47077 9.18116M7.49283 9.17315L7.49232 9.17196L7.47077 9.18116" stroke="#112211" stroke-width="0.046875"/>
</g>
<defs>
<filter id="filter0_d_320_4210" x="-2.5" y="0.000610352" width="21.9995" height="21.9993" filterUnits="userSpaceOnUse" color-interpolation-filters="sRGB">
<feFlood flood-opacity="0" result="BackgroundImageFix"/>
<feColorMatrix in="SourceAlpha" type="matrix" values="0 0 0 0 0 0 0 0 0 0 0 0 0 0 0 0 0 0 127 0" result="hardAlpha"/>
<feOffset dy="4"/>
<feGaussianBlur stdDeviation="2"/>
<feComposite in2="hardAlpha" operator="out"/>
<feColorMatrix type="matrix" values="0 0 0 0 0 0 0 0 0 0 0 0 0 0 0 0 0 0 0.25 0"/>
<feBlend mode="normal" in2="BackgroundImageFix" result="effect1_dropShadow_320_4210"/>
<feBlend mode="normal" in="SourceGraphic" in2="effect1_dropShadow_320_4210" result="shape"/>
</filter>
</defs>
</svg>
